<?xml version="1.0" encoding="UTF-8" standalone="no"?>
<svg
   viewBox="0 0 72 72"
   version="1.1"
   id="svg4"
   sodipodi:docname="icon.svg"
   inkscape:version="1.4.4 (dcaf3e7, 2026-05-05)"
   xmlns:inkscape="http://www.inkscape.org/namespaces/inkscape"
   xmlns:sodipodi="http://sodipodi.sourceforge.net/DTD/sodipodi-0.dtd"
   xmlns="http://www.w3.org/2000/svg"
   xmlns:svg="http://www.w3.org/2000/svg">
  <defs
     id="defs4" />
  <sodipodi:namedview
     id="namedview4"
     pagecolor="#505050"
     bordercolor="#eeeeee"
     borderopacity="1"
     inkscape:showpageshadow="0"
     inkscape:pageopacity="0"
     inkscape:pagecheckerboard="0"
     inkscape:deskcolor="#505050"
     inkscape:zoom="7.994235"
     inkscape:cx="33.211433"
     inkscape:cy="45.282632"
     inkscape:window-width="1920"
     inkscape:window-height="1009"
     inkscape:window-x="-8"
     inkscape:window-y="-8"
     inkscape:window-maximized="1"
     inkscape:current-layer="g6" />
  <g
     id="g6"
     transform="matrix(0.89319031,0,0,0.89319031,3.7422761,5.9696901)">
    <g
       id="g5"
       transform="translate(-0.76959101,1.2478942)"
       style="fill:#ffffff">
      <circle
         style="fill:#ffffff;stroke-width:1.23045"
         id="path4"
         cx="36.884766"
         cy="22.599508"
         r="13.223588" />
      <path
         id="path5"
         style="fill:#ffffff;stroke-width:1.13043"
         d="m -28.189453,-36.628906 a 20.697788,20.697788 0 0 0 1.654297,-0.816406 20.697788,20.697788 0 0 0 10.347656,-17.925782 h -41.394531 a 20.697788,20.697788 0 0 0 10.347656,17.925782 20.697788,20.697788 0 0 0 1.65625,0.816406 16.407864,16.407864 0 0 1 8.693359,-2.525391 16.407864,16.407864 0 0 1 8.695313,2.525391 z"
         transform="scale(-1)" />
    </g>
    <path
       d="M 14.22533,58.46524 H 8.4435831 Q 3.974722,53.339936 1.5004373,47.280463 -0.97384741,41.22099 -0.97384741,33.621401 q 0,-7.599588 2.47428471,-13.659061 Q 3.974722,13.902867 8.4435831,8.7775633 H 14.22533 v 0.252478 q -2.045072,1.8430897 -3.913409,4.2668787 -1.8430901,2.398541 -3.4337017,5.605012 -1.5148682,3.10548 -2.4742847,6.842155 -0.9341687,3.736675 -0.9341687,7.877314 0,4.317375 0.9089209,7.902563 0.9341687,3.585188 2.4995325,6.816907 1.5148682,3.105479 3.4589487,5.605012 1.944081,2.52478 3.888162,4.266878 z M 73.204196,33.621401 q 0,7.599589 -2.474284,13.659062 -2.474285,6.059473 -6.943146,11.184777 h -5.781747 v -0.252479 q 1.944081,-1.742098 3.888162,-4.266878 1.969328,-2.499533 3.458949,-5.605012 1.565363,-3.231719 2.474284,-6.816907 0.934169,-3.585188 0.934169,-7.902563 0,-4.140639 -0.934169,-7.877314 -0.934168,-3.736675 -2.474284,-6.842155 -1.590612,-3.206471 -3.458949,-5.605012 -1.84309,-2.423789 -3.888162,-4.2668787 v -0.252478 h 5.781747 q 4.468861,5.1253037 6.943146,11.1847767 2.474284,6.059473 2.474284,13.659061 z"
       id="text5"
       style="font-size:51.7075px;stroke-width:4.30896;fill:#ffffff"
       aria-label="(  )" />
  </g>
</svg>
