<?xml version="1.0" encoding="UTF-8" standalone="no"?>
<!-- Created with Inkscape (http://www.inkscape.org/) -->

<svg
   width="28"
   height="28"
   viewBox="0 0 28 28"
   version="1.1"
   id="svg1"
   inkscape:version="1.4.4 (dcaf3e7, 2026-05-05)"
   sodipodi:docname="category-icon.svg"
   inkscape:export-filename="marketplace@2x.png"
   inkscape:export-xdpi="1755.4301"
   inkscape:export-ydpi="1755.4301"
   xmlns:inkscape="http://www.inkscape.org/namespaces/inkscape"
   xmlns:sodipodi="http://sodipodi.sourceforge.net/DTD/sodipodi-0.dtd"
   xmlns="http://www.w3.org/2000/svg"
   xmlns:svg="http://www.w3.org/2000/svg">
  <sodipodi:namedview
     id="namedview1"
     pagecolor="#505050"
     bordercolor="#eeeeee"
     borderopacity="1"
     inkscape:showpageshadow="0"
     inkscape:pageopacity="0"
     inkscape:pagecheckerboard="0"
     inkscape:deskcolor="#505050"
     inkscape:document-units="px"
     inkscape:zoom="17.054368"
     inkscape:cx="20.200104"
     inkscape:cy="13.075829"
     inkscape:window-width="1920"
     inkscape:window-height="1009"
     inkscape:window-x="-8"
     inkscape:window-y="-8"
     inkscape:window-maximized="1"
     inkscape:current-layer="layer1" />
  <defs
     id="defs1" />
  <g
     inkscape:label="Capa 1"
     inkscape:groupmode="layer"
     id="layer1">
    <g
       id="g3"
       transform="matrix(1.0221545,0,0,1.0221545,-0.57691262,-0.7609894)">
      <path
         d="m 25.875386,18.967919 c 0,0 -0.03858,-0.236724 -0.06114,-0.234594 l -4.295531,0.414449 c -0.341792,0.033 -0.607245,0.30558 -0.63123,0.648087 l -0.118011,1.691384 -3.323148,0.237081 -0.226038,-1.532888 c -0.05034,-0.340964 -0.34808,-0.597988 -0.692729,-0.597988 h -4.533693 c -0.344521,0 -0.642272,0.257024 -0.692612,0.597988 L 11.075089,21.724326 7.751941,21.487245 7.63393,19.795861 C 7.60995,19.453239 7.344493,19.180659 7.0027,19.147648 L 2.70507,18.733315 c -0.0222,-0.0022 -0.03847,0.234824 -0.06067,0.234824 l -0.0058,0.929579 3.639718,0.586946 0.119197,1.706498 c 0.0241,0.345477 0.302851,0.624817 0.648559,0.64963 l 4.576729,0.326479 c 0.01733,0.0012 0.03443,0.0019 0.05153,0.0019 0.343934,0 0.641202,-0.25715 0.691542,-0.598104 l 0.232567,-1.577288 h 3.324725 l 0.232568,1.577288 c 0.05022,0.340849 0.34785,0.597989 0.692256,0.597989 0.01686,0 0.03372,-5.51e-4 0.05022,-0.0018 l 4.577357,-0.326479 c 0.345593,-0.02481 0.62446,-0.304163 0.64856,-0.649631 l 0.119071,-1.706498 3.638143,-0.58956 z"
         fill="#ffffff"
         stroke-width="0.104963"
         id="path2" />
      <path
         d="m 11.569109,1.9617151 c -1.209023,0.268783 -2.405058,0.642897 -3.526383,1.207291 0.02564,0.990096 0.08965,1.938783 0.219408,2.902428 -0.435463,0.278993 -0.893109,0.518444 -1.299869,0.84501 -0.413263,0.317929 -0.835406,0.6222 -1.209575,0.994031 -0.747574,-0.494465 -1.538714,-0.959157 -2.353809,-1.369381 -0.878624,0.945617 -1.700253,1.966257 -2.371364,3.108287 0.504912,0.8168269 1.032055,1.5824049 1.60122,2.3089369 h 0.01584 v 7.00939 c 0.01282,7.9e-5 0.02574,6.66e-4 0.03844,0.0018 l 4.297158,0.414215 c 0.225091,0.02173 0.40147,0.202947 0.417136,0.428519 l 0.132538,1.896903 3.748381,0.267531 0.258155,-1.750793 c 0.03348,-0.226989 0.22828,-0.395149 0.457883,-0.395149 h 4.53364 c 0.229485,0 0.424252,0.16816 0.457726,0.395149 l 0.258155,1.750793 3.748539,-0.267531 0.13238,-1.896903 c 0.01579,-0.225564 0.192044,-0.406673 0.417136,-0.428519 l 4.295425,-0.414215 c 0.0127,-0.0012 0.02547,-0.0017 0.03829,-0.0018 v -0.559364 l 0.0018,-6.1e-4 v -6.449413 h 0.01584 c 0.56926,-0.726563 1.096057,-1.492189 1.60122,-2.3089379 -0.670882,-1.142108 -1.492897,-2.162748 -2.371521,-3.108286 -0.814859,0.410176 -1.606416,0.874845 -2.353966,1.369381 -0.374082,-0.371831 -0.795415,-0.676094 -1.209259,-0.994032 -0.406619,-0.326597 -0.864928,-0.566047 -1.299555,-0.845009 0.129413,-0.963645 0.193501,-1.912332 0.219267,-2.902427 -1.121405,-0.564438 -2.317361,-0.938575 -3.527013,-1.207334 -0.482949,0.811709 -0.924599,1.69057 -1.309238,2.549907 -0.45612,-0.07622 -0.914365,-0.104473 -1.37316,-0.109937 v -6.27e-4 c -0.0032,0 -0.0062,6.27e-4 -0.0089,6.27e-4 -0.0028,0 -0.0059,-6.27e-4 -0.0088,-6.27e-4 v 6.27e-4 c -0.459686,0.0055 -0.917593,0.03372 -1.373791,0.109937 -0.384411,-0.859259 -0.825723,-1.738198 -1.309395,-2.549907 z M 2.637231,19.894747 c 0.0018,0.415278 0.0071,0.870202 0.0071,0.96081 0,4.080828 5.176805,6.042283 11.608449,6.064877 h 0.01584 c 6.431724,-0.02256 11.606876,-1.984049 11.606876,-6.064877 0,-0.09225 0.0056,-0.545296 0.0075,-0.96081 l -3.862451,0.372548 -0.133151,1.907057 c -0.01603,0.229839 -0.198831,0.412782 -0.428669,0.429282 l -4.577332,0.326574 c -0.01116,8.33e-4 -0.02233,0.0012 -0.03336,0.0012 -0.22747,0 -0.42367,-0.167041 -0.457269,-0.395455 l -0.262461,-1.779978 h -3.734839 l -0.262462,1.779999 c -0.03526,0.239576 -0.249393,0.411917 -0.490631,0.394228 L 7.063035,22.603634 c -0.229839,-0.0165 -0.41264,-0.199443 -0.428669,-0.429282 l -0.133,-1.907055 -3.864026,-0.372548 z"
         fill="#478cbf"
         id="path3"
         style="stroke-width:0.083971" />
    </g>
    <text
       xml:space="preserve"
       style="font-size:15.2197px;text-align:center;writing-mode:lr-tb;direction:ltr;text-anchor:middle;fill:#ffffff;stroke-width:2.53665;stroke-linecap:round;stroke-dasharray:2.53665, 5.07325"
       x="13.847799"
       y="10.969016"
       id="text1"><tspan
         sodipodi:role="line"
         x="13.847799"
         y="10.969016"
         style="font-style:normal;font-variant:normal;font-weight:normal;font-stretch:normal;font-family:'Ink Free';-inkscape-font-specification:'Ink Free';stroke-width:2.53665"
         dx="0 0"
         id="tspan3"><tspan
   dy="6.2838106"
   id="tspan4"
   style="font-style:normal;font-variant:normal;font-weight:normal;font-stretch:normal;font-family:'Ink Free';-inkscape-font-specification:'Ink Free';stroke-width:2.53665">e</tspan>b</tspan></text>
  </g>
</svg>
