<?xml version="1.0" encoding="UTF-8" standalone="no"?>
<!-- Created with Inkscape (http://www.inkscape.org/) -->

<svg
   width="1920"
   height="960"
   viewBox="0 0 1920 960"
   version="1.1"
   id="svg1"
   inkscape:version="1.4.4 (dcaf3e7, 2026-05-05)"
   sodipodi:docname="thumbnail.svg"
   inkscape:export-filename="thumbnail.png"
   inkscape:export-xdpi="96"
   inkscape:export-ydpi="96"
   xmlns:inkscape="http://www.inkscape.org/namespaces/inkscape"
   xmlns:sodipodi="http://sodipodi.sourceforge.net/DTD/sodipodi-0.dtd"
   xmlns="http://www.w3.org/2000/svg"
   xmlns:svg="http://www.w3.org/2000/svg">
  <sodipodi:namedview
     id="namedview1"
     pagecolor="#505050"
     bordercolor="#eeeeee"
     borderopacity="1"
     inkscape:showpageshadow="0"
     inkscape:pageopacity="0"
     inkscape:pagecheckerboard="0"
     inkscape:deskcolor="#505050"
     inkscape:document-units="px"
     inkscape:zoom="0.37685185"
     inkscape:cx="863.73464"
     inkscape:cy="424.57002"
     inkscape:window-width="1920"
     inkscape:window-height="1009"
     inkscape:window-x="-8"
     inkscape:window-y="-8"
     inkscape:window-maximized="1"
     inkscape:current-layer="layer1" />
  <defs
     id="defs1" />
  <g
     inkscape:label="Capa 1"
     inkscape:groupmode="layer"
     id="layer1">
    <rect
       style="fill:#666666;stroke-width:2;stroke-linecap:round;stroke-dasharray:2, 4"
       id="rect4"
       width="1920"
       height="960"
       x="0"
       y="0"
       rx="0" />
    <g
       id="g4">
      <g
         id="g3"
         transform="translate(463.45898,76.082791)">
        <text
           xml:space="preserve"
           style="font-size:171.25px;text-align:center;writing-mode:lr-tb;direction:ltr;text-anchor:middle;fill:#ffffff;stroke-width:52.5244;stroke-linecap:round;stroke-dasharray:52.5244, 105.048"
           x="955.88995"
           y="519.56848"
           id="text1"><tspan
             sodipodi:role="line"
             x="955.88995"
             y="519.56848"
             style="font-style:normal;font-variant:normal;font-weight:normal;font-stretch:normal;font-size:171.25px;font-family:'Ink Free';-inkscape-font-specification:'Ink Free';stroke-width:52.5244"
             dx="0 0 0 0 0 0 0 0"
             id="tspan2"><tspan
   dy="52.154148"
   id="tspan4"
   style="font-style:normal;font-variant:normal;font-weight:normal;font-stretch:normal;font-size:171.25px;font-family:'Ink Free';-inkscape-font-specification:'Ink Free';stroke-width:52.5244">engine </tspan>boost</tspan></text>
        <path
           d="m 609.49682,179.94418 c -29.4541,0 -52.4864,9.27356 -69.1194,27.8189 -16.64574,18.55365 -24.95274,42.63467 -24.95274,72.28196 0,34.80897 8.50332,61.19705 25.50984,79.17096 17.0368,17.9719 39.4047,26.94738 67.1359,26.94738 14.9131,0 28.1491,-1.28568 39.7147,-3.86948 11.5773,-2.57367 19.2727,-5.21428 23.102,-7.88678 l 1.1482,-89.75495 c 0,-5.21562 -13.7666,-7.58647 -29.207,-7.85062 -15.4413,-0.23882 -33.1131,2.98112 -33.1131,2.98112 v 30.1392 h 17.7709 l -0.1975,13.43438 c 0,4.97686 -4.9339,7.47551 -14.7736,7.47551 -9.8522,0 -18.5539,-4.16959 -26.1027,-12.48988 -7.5659,-8.33039 -11.3287,-20.50915 -11.3287,-36.55426 0,-16.07904 3.6766,-27.93122 11.0391,-35.58169 7.3473,-7.64195 16.9797,-11.47661 28.8251,-11.47661 4.9769,0 10.1295,0.80274 15.4875,2.44138 5.3605,1.62337 8.9391,3.14487 10.7659,4.57028 1.8114,1.46592 3.5339,2.16172 5.1624,2.16172 1.6209,0 4.2466,-1.89799 7.8768,-5.73178 3.6358,-3.82345 6.8922,-9.61746 9.7658,-17.34318 2.8607,-7.76639 4.2937,-13.71964 4.2937,-17.942 0,-4.18935 -0.094,-7.07657 -0.2796,-8.60083 -4.0166,-4.3951 -11.4299,-7.88161 -22.2423,-10.47302 -10.7922,-2.58378 -22.893,-3.86613 -36.278,-3.86613 z m 175.9744,0 c -27.0597,0 -49.1508,8.70123 -66.2621,26.08934 -17.1081,17.41035 -25.6604,42.97834 -25.6604,76.7451 0,33.74881 8.4575,59.42034 25.3638,77.0124 16.9301,17.57812 38.8319,26.36786 65.6939,26.36786 26.8733,0 48.8027,-8.45035 65.8287,-25.35484 17.0267,-16.94044 25.5323,-42.75596 25.5323,-77.46387 0,-34.68096 -8.3136,-60.61082 -24.9662,-77.71769 -16.6228,-17.13857 -38.4748,-25.68054 -65.53,-25.68054 z m 380.41238,0 c -27.0687,0 -49.1463,8.70123 -66.2735,26.08934 -17.1054,17.41035 -25.658,42.97834 -25.658,76.7451 0,33.74881 8.4602,59.42034 25.3885,77.0124 16.9151,17.57812 38.8027,26.36786 65.6737,26.36786 26.862,0 48.8094,-8.45035 65.8287,-25.35484 17.0242,-16.94044 25.5323,-42.75596 25.5323,-77.46387 0,-34.68096 -8.3131,-60.61082 -24.9527,-77.71769 -16.6431,-17.13857 -38.4794,-25.68054 -65.539,-25.68054 z m -251.68398,2.56648 c -3.8362,0 -6.9392,1.39913 -9.3248,4.15567 -2.4007,2.79963 -3.5899,6.57431 -3.5899,11.35801 v 172.0818 c 0,8.80298 4.8864,13.19089 14.6321,13.19089 h 49.0363 c 60.04478,0 90.07838,-35.17738 90.07838,-105.55007 0,-32.89524 -7.894,-56.9765 -23.6837,-72.27072 -15.7616,-15.29915 -38.84978,-22.96716 -69.24738,-22.96716 z m 357.86078,0 c -3.2545,0 -5.5495,4.41847 -6.8833,13.2138 -0.5741,4.20463 -0.8488,8.51818 -0.8488,12.89801 0,4.40518 0.2747,8.70102 0.8488,12.898 1.3338,8.81827 3.629,13.20729 6.8833,13.20729 h 34.4136 v 144.00011 c 0,3.80075 9.4797,5.7284 28.4029,5.7284 18.9398,0 28.3962,-1.92776 28.3962,-5.7284 V 234.72776 h 33.5601 c 3.2493,0 5.5357,-4.38902 6.8899,-13.20729 0.5615,-4.19698 0.8522,-8.49258 0.8522,-12.898 0,-4.37983 -0.2907,-8.69336 -0.8522,-12.89801 -1.3541,-8.79534 -3.6406,-13.2138 -6.8899,-13.2138 z m -487.33038,52.50662 c 9.1866,0 16.8848,4.10781 23.0907,12.31892 6.2142,8.22123 9.3312,19.99434 9.3312,35.28743 0,15.30681 -3.0181,27.06419 -9.0418,35.27846 -6.0235,8.24412 -13.8682,12.35172 -23.5219,12.35172 -9.6592,0 -17.4438,-4.05953 -23.3715,-12.20708 -5.9373,-8.12216 -8.9002,-19.77667 -8.9002,-35.00215 0,-15.19247 3.1166,-26.99905 9.3181,-35.41097 6.2345,-8.40406 13.9206,-12.61835 23.0952,-12.61835 z m 380.41238,0 c 9.1866,0 16.8746,4.10781 23.0906,12.31892 6.2143,8.22123 9.3248,19.99434 9.3248,35.28743 0,15.30681 -3.0155,27.06419 -9.0417,35.27846 -6.016,8.24412 -13.8657,12.35172 -23.522,12.35172 -9.6592,0 -17.4514,-4.05953 -23.3715,-12.20708 -5.9195,-8.12216 -8.8903,-19.77667 -8.8903,-35.00215 0,-15.19247 3.1027,-26.99905 9.3016,-35.41097 6.2243,-8.40406 13.9312,-12.61835 23.1087,-12.61835 z m -208.80228,1.98734 h 2.8691 c 12.2378,0 21.1814,2.79829 26.8282,8.3441 5.6197,5.53077 8.4461,17.43797 8.4461,35.70971 10e-5,18.2639 -2.7016,31.30272 -8.1664,39.13513 -5.4519,7.84006 -13.4254,11.77266 -23.9532,11.77266 -2.8607,0 -4.5867,-0.5283 -5.1559,-1.58263 -0.5742,-1.05941 -0.8686,-3.58422 -0.8686,-7.59073 z"
           fill="#eeeeee"
           stroke-width="2.24617"
           id="path1" />
      </g>
      <g
         id="g1"
         transform="translate(236.42037,744.53746)">
        <path
           d="m 654.1126,-109.19797 c 0,0 -1.324,-8.12319 -2.09802,-8.05009 l -147.4013,14.22185 c -11.72866,1.1325 -20.83769,10.485979 -21.66069,22.239139 l -4.04955,58.03988 -114.03395,8.13545 -7.75653,-52.60112 c -1.72735,-11.70019 -11.94438,-20.51998 -23.77101,-20.51998 H 177.76771 c -11.82229,0 -22.03961,8.81979 -23.76705,20.51998 l -7.76086,52.60112 -114.033929,-8.13545 -4.04955,-58.03988 c -0.82294,-11.7571 -9.93205,-21.110709 -21.6606897,-22.243449 L -140.9777,-117.24839 c -0.76184,-0.0735 -1.31994,8.05798 -2.08176,8.05798 l -0.19963,31.898539 124.897071,20.14108 4.09026,58.5585403 C -13.444789,13.262839 -3.8794187,22.848389 7.9835813,23.699859 L 165.03419,34.902989 c 0.59479,0.0405 1.18142,0.0651 1.76808,0.0651 11.80208,0 22.00285,-8.82411 23.73029,-20.52394 l 7.98056,-54.1247 h 114.08797 l 7.9806,54.1247 c 1.72319,11.69624 11.93646,20.52 23.75479,20.52 0.57847,0 1.15696,-0.0189 1.72326,-0.0613 l 157.07221,-11.20313 c 11.85901,-0.85145 21.42835,-10.4374 22.25533,-22.2920997 l 4.08592,-58.5585803 124.84304,-20.23074 z"
           fill="#ffffff"
           stroke-width="3.60182"
           id="path2-8" />
        <g
           stroke-width="0.9375"
           id="g5"
           transform="matrix(2.8814642,0,0,2.8814642,-220.15961,-714.37027)">
          <path
             d="m 133.04062,7.4975 c -14.39812,3.200906 -28.64156,7.656188 -41.995308,14.3775 0.305391,11.790937 1.067625,23.08875 2.612907,34.564687 -5.185875,3.3225 -10.635938,6.174094 -15.48,10.063125 -4.9215,3.786188 -9.94875,7.409719 -14.404688,11.837813 C 54.87075,72.452094 45.449156,66.918125 35.742281,62.032812 25.278844,73.294062 15.494156,85.44875 7.5019687,99.049063 13.514906,108.77656 19.792594,117.89375 26.570719,126.54594 h 0.188597 V 210.02 c 0.15269,9.4e-4 0.306487,0.008 0.457762,0.0219 l 51.174375,4.93284 c 2.680594,0.25873 4.781063,2.41688 4.967625,5.10319 l 1.578375,22.59 44.639067,3.186 3.07434,-20.85 c 0.39868,-2.70319 2.71856,-4.70578 5.45287,-4.70578 h 53.99063 c 2.73291,0 5.05237,2.00259 5.451,4.70578 l 3.07434,20.85 44.64094,-3.186 1.5765,-22.59 c 0.18804,-2.68622 2.28703,-4.84303 4.96763,-5.10319 l 51.15375,-4.93284 c 0.15127,-0.0142 0.30324,-0.0204 0.45592,-0.0219 v -6.66141 l 0.0219,-0.007 v -76.80562 h 0.18859 c 6.77925,-8.65256 13.05282,-17.77031 19.06875,-27.496876 -7.98946,-13.60125 -17.77875,-25.755938 -28.24218,-37.01625 -9.70407,4.88475 -19.13063,10.418437 -28.03313,16.307812 -4.4549,-4.428094 -9.4725,-8.051531 -14.40093,-11.837812 -4.84238,-3.889407 -10.30032,-6.741 -15.47626,-10.063125 1.54107,-11.475938 2.30429,-22.77375 2.61113,-34.564688 C 225.79766,15.153219 211.55516,10.697656 197.14954,7.4970312 191.39816,17.163594 186.1386,27.629844 181.55797,37.863594 176.1261,36.955916 170.66891,36.619437 165.20516,36.554375 v -0.0073 c -0.0382,0 -0.0737,0.0073 -0.1062,0.0073 -0.0338,0 -0.0704,-0.0073 -0.10437,-0.0073 v 0.0073 c -5.47434,0.065 -10.9275,0.401531 -16.36031,1.309219 -4.57791,-10.232813 -9.83344,-20.7 -15.59344,-30.3665628 z M 26.671875,221.06 c 0.02125,4.9455 0.08423,10.36313 0.08423,11.44219 0,48.59812 61.65,71.95687 138.243745,72.22594 h 0.1886 c 76.59469,-0.26864 138.225,-23.62782 138.225,-72.22594 0,-1.09856 0.0671,-6.49388 0.0897,-11.44219 l -45.9975,4.43663 -1.58569,22.71093 c -0.19087,2.73713 -2.36785,4.91578 -5.10497,5.11228 l -54.51094,3.88913 c -0.1329,0.01 -0.26585,0.0146 -0.39733,0.0146 -2.70891,0 -5.04544,-1.98928 -5.44556,-4.70943 l -3.12563,-21.19782 h -44.47781 l -3.12562,21.19782 c -0.41991,2.85309 -2.97,4.90547 -5.84288,4.69481 l -54.510932,-3.88913 c -2.737125,-0.19651 -4.914094,-2.37515 -5.104969,-5.11228 L 72.689428,225.49663 26.673178,221.06 Z"
             fill="#478cbf"
             id="path3-8" />
          <path
             d="m 92.552813,129.60687 c -17.025001,0 -30.835313,13.79626 -30.835313,30.82407 0,17.03906 13.809375,30.84187 30.835312,30.84187 17.033438,0 30.839998,-13.80281 30.839998,-30.84187 0,-17.02782 -13.80656,-30.82407 -30.839997,-30.82407 z m 145.087497,0 c -17.03625,0 -30.84187,13.79626 -30.84187,30.82407 0,17.03906 13.80562,30.84187 30.84187,30.84187 17.02406,0 30.83156,-13.80281 30.83156,-30.84187 0,-17.02782 -13.8075,-30.82407 -30.83156,-30.82407 z M 165.09,147.64438 c -5.48278,0 -9.92625,4.04493 -9.92625,9.02156 v 28.39031 c 0,4.98084 4.44337,9.02156 9.92625,9.02156 5.48287,0 9.9375,-4.04072 9.9375,-9.02156 v -28.39031 c 0,-4.97663 -4.45434,-9.02156 -9.9375,-9.02156 z"
             fill="#ffffff"
             id="path4" />
          <path
             d="m 95.503125,141.79437 c -11.305312,0 -20.469375,9.16913 -20.469375,20.47125 0,11.30213 9.164438,20.46188 20.469375,20.46188 11.310935,0 20.471255,-9.15994 20.471255,-20.46188 0,-11.30193 -9.16069,-20.47125 -20.471255,-20.47125 z m 139.181255,0 c -11.30251,0 -20.46001,9.16913 -20.46001,20.47125 0,11.30213 9.15816,20.46188 20.46001,20.46188 11.31375,0 20.46937,-9.15994 20.46937,-20.46188 0,-11.30193 -9.156,-20.47125 -20.46937,-20.47125 z"
             fill="#414042"
             id="path5" />
        </g>
      </g>
    </g>
  </g>
</svg>
